# xmcd
#
# Track frame offsets: 
#        150
#        14641
#        31050
#        46096
#        61701
#        77859
#        97099
#        114826
#
# Disc length: 1753 seconds
#
# Revision: 3
# Processed by: cddbd v1.5.2PL0 Copyright (c) Steve Scherf et al.
# Submitted via: ExactAudioCopy v0.99pb4
#
DISCID=5706d708
DTITLE=Beyonce - I Am...Sasha Fierce (Deluxe Edition CD2)
DYEAR=2008
DGENRE=R&B
TTITLE0=Single Ladies (Put A Ring On It)
TTITLE1=Radio
TTITLE2=Diva
TTITLE3=Sweet Dreams
TTITLE4=Video Phone
TTITLE5=Hello
TTITLE6=Ego
TTITLE7=Scared Of Lonely
EXTD=
EXTT0=
EXTT1=
EXTT2=
EXTT3=
EXTT4=
EXTT5=
EXTT6=
EXTT7=
PLAYORDER=
